# Blender v2.83.0 OBJ File: ''
# www.blender.org
mtllib sushi.mtl
o uploads_files_3644754_Sushi_Obj
v 0.007706 0.364889 -0.776946
v 1.898602 0.729155 -0.607085
v 1.940846 0.364889 -0.776946
v 0.007706 0.364889 -0.776946
v 1.773716 1.077499 -0.444649
v 1.898602 0.729155 -0.607085
v 0.007706 0.364889 -0.776946
v 1.571649 1.394701 -0.296737
v 1.773716 1.077499 -0.444649
v 0.007706 0.364889 -0.776946
v 1.301229 1.666893 -0.169811
v 1.571649 1.394701 -0.296737
v 0.007706 0.364889 -0.776946
v 0.974277 1.882182 -0.069419
v 1.301229 1.666893 -0.169811
v 0.007706 0.364889 -0.776946
v 0.605078 2.031159 0.000048
v 0.974277 1.882182 -0.069419
v 0.007706 0.364889 -0.776946
v 0.209775 2.107311 0.035560
v 0.605078 2.031159 0.000048
v 0.007706 0.364889 -0.776946
v -0.194362 2.107311 0.035560
v 0.209775 2.107311 0.035560
v 0.007706 0.364889 -0.776946
v -0.589664 2.031159 0.000048
v -0.194362 2.107311 0.035560
v 0.007706 0.364889 -0.776946
v -0.958863 1.882182 -0.069419
v -0.589664 2.031159 0.000048
v 0.007706 0.364889 -0.776946
v -1.285815 1.666893 -0.169811
v -0.958863 1.882182 -0.069419
v 0.007706 0.364889 -0.776946
v -1.556235 1.394701 -0.296737
v -1.285815 1.666893 -0.169811
v 0.007706 0.364889 -0.776946
v -1.758303 1.077499 -0.444649
v -1.556235 1.394701 -0.296737
v 0.007706 0.364889 -0.776946
v -1.883189 0.729153 -0.607085
v -1.758303 1.077499 -0.444649
v 0.007706 0.364889 -0.776946
v -1.925434 0.364889 -0.776946
v -1.883189 0.729153 -0.607085
v 0.007706 0.364889 -0.776946
v -1.883189 0.000623 -0.946804
v -1.925434 0.364889 -0.776946
v 0.007706 0.364889 -0.776946
v -1.758303 -0.347722 -1.109240
v -1.883189 0.000623 -0.946804
v 0.007706 0.364889 -0.776946
v -1.556235 -0.664923 -1.257154
v -1.758303 -0.347722 -1.109240
v 0.007706 0.364889 -0.776946
v -1.285815 -0.937115 -1.384079
v -1.556235 -0.664923 -1.257154
v 0.007706 0.364889 -0.776946
v -0.958863 -1.152405 -1.484471
v -1.285815 -0.937115 -1.384079
v 0.007706 0.364889 -0.776946
v -0.589667 -1.301380 -1.553941
v -0.958863 -1.152405 -1.484471
v 0.007706 0.364889 -0.776946
v -0.194362 -1.377533 -1.589450
v -0.589667 -1.301380 -1.553941
v 0.007706 0.364889 -0.776946
v 0.209774 -1.377533 -1.589451
v -0.194362 -1.377533 -1.589450
v 0.007706 0.364889 -0.776946
v 0.605078 -1.301382 -1.553941
v 0.209774 -1.377533 -1.589451
v 0.007706 0.364889 -0.776946
v 0.974275 -1.152406 -1.484471
v 0.605078 -1.301382 -1.553941
v 0.007706 0.364889 -0.776946
v 1.301227 -0.937117 -1.384082
v 0.974275 -1.152406 -1.484471
v 0.007706 0.364889 -0.776946
v 1.571647 -0.664924 -1.257156
v 1.301227 -0.937117 -1.384082
v 0.007706 0.364889 -0.776946
v 1.773715 -0.347724 -1.109243
v 1.571647 -0.664924 -1.257156
v 0.007706 0.364889 -0.776946
v 1.898601 0.000619 -0.946805
v 1.773715 -0.347724 -1.109243
v 0.007706 0.364889 -0.776946
v 1.940846 0.364889 -0.776946
v 1.898601 0.000619 -0.946805
v 1.940846 0.364889 -0.776946
v 1.898602 0.090389 0.762750
v 1.940846 -0.273876 0.592890
v 1.940846 0.364889 -0.776946
v 1.898602 0.729155 -0.607085
v 1.898602 0.090389 0.762750
v 1.898602 0.729155 -0.607085
v 1.773716 0.438734 0.925186
v 1.898602 0.090389 0.762750
v 1.898602 0.729155 -0.607085
v 1.773716 1.077499 -0.444649
v 1.773716 0.438734 0.925186
v 1.773716 1.077499 -0.444649
v 1.571649 0.755935 1.073099
v 1.773716 0.438734 0.925186
v 1.773716 1.077499 -0.444649
v 1.571649 1.394701 -0.296737
v 1.571649 0.755935 1.073099
v 1.571649 1.394701 -0.296737
v 1.301229 1.028128 1.200026
v 1.571649 0.755935 1.073099
v 1.571649 1.394701 -0.296737
v 1.301229 1.666893 -0.169811
v 1.301229 1.028128 1.200026
v 1.301229 1.666893 -0.169811
v 0.974277 1.243417 1.300416
v 1.301229 1.028128 1.200026
v 1.301229 1.666893 -0.169811
v 0.974277 1.882182 -0.069419
v 0.974277 1.243417 1.300416
v 0.974277 1.882182 -0.069419
v 0.605078 1.392393 1.369885
v 0.974277 1.243417 1.300416
v 0.974277 1.882182 -0.069419
v 0.605078 2.031159 0.000048
v 0.605078 1.392393 1.369885
v 0.605078 2.031159 0.000048
v 0.209775 1.468545 1.405397
v 0.605078 1.392393 1.369885
v 0.605078 2.031159 0.000048
v 0.209775 2.107311 0.035560
v 0.209775 1.468545 1.405397
v 0.209775 2.107311 0.035560
v -0.194362 1.468545 1.405397
v 0.209775 1.468545 1.405397
v 0.209775 2.107311 0.035560
v -0.194362 2.107311 0.035560
v -0.194362 1.468545 1.405397
v -0.194362 2.107311 0.035560
v -0.589664 1.392393 1.369885
v -0.194362 1.468545 1.405397
v -0.194362 2.107311 0.035560
v -0.589664 2.031159 0.000048
v -0.589664 1.392393 1.369885
v -0.589664 2.031159 0.000048
v -0.958863 1.243417 1.300416
v -0.589664 1.392393 1.369885
v -0.589664 2.031159 0.000048
v -0.958863 1.882182 -0.069419
v -0.958863 1.243417 1.300416
v -0.958863 1.882182 -0.069419
v -1.285815 1.028128 1.200026
v -0.958863 1.243417 1.300416
v -0.958863 1.882182 -0.069419
v -1.285815 1.666893 -0.169811
v -1.285815 1.028128 1.200026
v -1.285815 1.666893 -0.169811
v -1.556235 0.755935 1.073099
v -1.285815 1.028128 1.200026
v -1.285815 1.666893 -0.169811
v -1.556235 1.394701 -0.296737
v -1.556235 0.755935 1.073099
v -1.556235 1.394701 -0.296737
v -1.758303 0.438734 0.925186
v -1.556235 0.755935 1.073099
v -1.556235 1.394701 -0.296737
v -1.758303 1.077499 -0.444649
v -1.758303 0.438734 0.925186
v -1.758303 1.077499 -0.444649
v -1.883189 0.090389 0.762750
v -1.758303 0.438734 0.925186
v -1.758303 1.077499 -0.444649
v -1.883189 0.729153 -0.607085
v -1.883189 0.090389 0.762750
v -1.883189 0.729153 -0.607085
v -1.925434 -0.273877 0.592890
v -1.883189 0.090389 0.762750
v -1.883189 0.729153 -0.607085
v -1.925434 0.364889 -0.776946
v -1.925434 -0.273877 0.592890
v -1.925434 0.364889 -0.776946
v -1.883189 -0.638142 0.423030
v -1.925434 -0.273877 0.592890
v -1.925434 0.364889 -0.776946
v -1.883189 0.000623 -0.946804
v -1.883189 -0.638142 0.423030
v -1.883189 0.000623 -0.946804
v -1.758303 -0.986487 0.260594
v -1.883189 -0.638142 0.423030
v -1.883189 0.000623 -0.946804
v -1.758303 -0.347722 -1.109240
v -1.758303 -0.986487 0.260594
v -1.758303 -0.347722 -1.109240
v -1.556235 -1.303688 0.112681
v -1.758303 -0.986487 0.260594
v -1.758303 -0.347722 -1.109240
v -1.556235 -0.664923 -1.257154
v -1.556235 -1.303688 0.112681
v -1.556235 -0.664923 -1.257154
v -1.285815 -1.575881 -0.014245
v -1.556235 -1.303688 0.112681
v -1.556235 -0.664923 -1.257154
v -1.285815 -0.937115 -1.384079
v -1.285815 -1.575881 -0.014245
v -1.285815 -0.937115 -1.384079
v -0.958863 -1.791170 -0.114636
v -1.285815 -1.575881 -0.014245
v -1.285815 -0.937115 -1.384079
v -0.958863 -1.152405 -1.484471
v -0.958863 -1.791170 -0.114636
v -0.958863 -1.152405 -1.484471
v -0.589667 -1.940146 -0.184103
v -0.958863 -1.791170 -0.114636
v -0.958863 -1.152405 -1.484471
v -0.589667 -1.301380 -1.553941
v -0.589667 -1.940146 -0.184103
v -0.589667 -1.301380 -1.553941
v -0.194362 -2.016299 -0.219613
v -0.589667 -1.940146 -0.184103
v -0.589667 -1.301380 -1.553941
v -0.194362 -1.377533 -1.589450
v -0.194362 -2.016299 -0.219613
v -0.194362 -1.377533 -1.589450
v 0.209774 -2.016299 -0.219613
v -0.194362 -2.016299 -0.219613
v -0.194362 -1.377533 -1.589450
v 0.209774 -1.377533 -1.589451
v 0.209774 -2.016299 -0.219613
v 0.209774 -1.377533 -1.589451
v 0.605078 -1.940146 -0.184103
v 0.209774 -2.016299 -0.219613
v 0.209774 -1.377533 -1.589451
v 0.605078 -1.301382 -1.553941
v 0.605078 -1.940146 -0.184103
v 0.605078 -1.301382 -1.553941
v 0.974275 -1.791172 -0.114635
v 0.605078 -1.940146 -0.184103
v 0.605078 -1.301382 -1.553941
v 0.974275 -1.152406 -1.484471
v 0.974275 -1.791172 -0.114635
v 0.974275 -1.152406 -1.484471
v 1.301227 -1.575882 -0.014245
v 0.974275 -1.791172 -0.114635
v 0.974275 -1.152406 -1.484471
v 1.301227 -0.937117 -1.384082
v 1.301227 -1.575882 -0.014245
v 1.301227 -0.937117 -1.384082
v 1.571647 -1.303689 0.112680
v 1.301227 -1.575882 -0.014245
v 1.301227 -0.937117 -1.384082
v 1.571647 -0.664924 -1.257156
v 1.571647 -1.303689 0.112680
v 1.571647 -0.664924 -1.257156
v 1.773715 -0.986490 0.260593
v 1.571647 -1.303689 0.112680
v 1.571647 -0.664924 -1.257156
v 1.773715 -0.347724 -1.109243
v 1.773715 -0.986490 0.260593
v 1.773715 -0.347724 -1.109243
v 1.898601 -0.638145 0.423028
v 1.773715 -0.986490 0.260593
v 1.773715 -0.347724 -1.109243
v 1.898601 0.000619 -0.946805
v 1.898601 -0.638145 0.423028
v 1.898601 0.000619 -0.946805
v 1.940846 -0.273876 0.592890
v 1.898601 -0.638145 0.423028
v 1.898601 0.000619 -0.946805
v 1.940846 0.364889 -0.776946
v 1.940846 -0.273876 0.592890
v 0.007706 -0.273876 0.592890
v 1.940846 -0.273876 0.592890
v 1.898602 0.090389 0.762750
v 0.007706 -0.273876 0.592890
v 1.898602 0.090389 0.762750
v 1.773716 0.438734 0.925186
v 0.007706 -0.273876 0.592890
v 1.773716 0.438734 0.925186
v 1.571649 0.755935 1.073099
v 0.007706 -0.273876 0.592890
v 1.571649 0.755935 1.073099
v 1.301229 1.028128 1.200026
v 0.007706 -0.273876 0.592890
v 1.301229 1.028128 1.200026
v 0.974277 1.243417 1.300416
v 0.007706 -0.273876 0.592890
v 0.974277 1.243417 1.300416
v 0.605078 1.392393 1.369885
v 0.007706 -0.273876 0.592890
v 0.605078 1.392393 1.369885
v 0.209775 1.468545 1.405397
v 0.007706 -0.273876 0.592890
v 0.209775 1.468545 1.405397
v -0.194362 1.468545 1.405397
v 0.007706 -0.273876 0.592890
v -0.194362 1.468545 1.405397
v -0.589664 1.392393 1.369885
v 0.007706 -0.273876 0.592890
v -0.589664 1.392393 1.369885
v -0.958863 1.243417 1.300416
v 0.007706 -0.273876 0.592890
v -0.958863 1.243417 1.300416
v -1.285815 1.028128 1.200026
v 0.007706 -0.273876 0.592890
v -1.285815 1.028128 1.200026
v -1.556235 0.755935 1.073099
v 0.007706 -0.273876 0.592890
v -1.556235 0.755935 1.073099
v -1.758303 0.438734 0.925186
v 0.007706 -0.273876 0.592890
v -1.758303 0.438734 0.925186
v -1.883189 0.090389 0.762750
v 0.007706 -0.273876 0.592890
v -1.883189 0.090389 0.762750
v -1.925434 -0.273877 0.592890
v 0.007706 -0.273876 0.592890
v -1.925434 -0.273877 0.592890
v -1.883189 -0.638142 0.423030
v 0.007706 -0.273876 0.592890
v -1.883189 -0.638142 0.423030
v -1.758303 -0.986487 0.260594
v 0.007706 -0.273876 0.592890
v -1.758303 -0.986487 0.260594
v -1.556235 -1.303688 0.112681
v 0.007706 -0.273876 0.592890
v -1.556235 -1.303688 0.112681
v -1.285815 -1.575881 -0.014245
v 0.007706 -0.273876 0.592890
v -1.285815 -1.575881 -0.014245
v -0.958863 -1.791170 -0.114636
v 0.007706 -0.273876 0.592890
v -0.958863 -1.791170 -0.114636
v -0.589667 -1.940146 -0.184103
v 0.007706 -0.273876 0.592890
v -0.589667 -1.940146 -0.184103
v -0.194362 -2.016299 -0.219613
v 0.007706 -0.273876 0.592890
v -0.194362 -2.016299 -0.219613
v 0.209774 -2.016299 -0.219613
v 0.007706 -0.273876 0.592890
v 0.209774 -2.016299 -0.219613
v 0.605078 -1.940146 -0.184103
v 0.007706 -0.273876 0.592890
v 0.605078 -1.940146 -0.184103
v 0.974275 -1.791172 -0.114635
v 0.007706 -0.273876 0.592890
v 0.974275 -1.791172 -0.114635
v 1.301227 -1.575882 -0.014245
v 0.007706 -0.273876 0.592890
v 1.301227 -1.575882 -0.014245
v 1.571647 -1.303689 0.112680
v 0.007706 -0.273876 0.592890
v 1.571647 -1.303689 0.112680
v 1.773715 -0.986490 0.260593
v 0.007706 -0.273876 0.592890
v 1.773715 -0.986490 0.260593
v 1.898601 -0.638145 0.423028
v 0.007706 -0.273876 0.592890
v 1.898601 -0.638145 0.423028
v 1.940846 -0.273876 0.592890
vt 0.255879 0.621844
vt 0.486603 0.572802
vt 0.491758 0.621844
vt 0.255879 0.621844
vt 0.471365 0.525903
vt 0.486603 0.572802
vt 0.255879 0.621844
vt 0.446709 0.483198
vt 0.471365 0.525903
vt 0.255879 0.621844
vt 0.413713 0.446552
vt 0.446709 0.483198
vt 0.255879 0.621844
vt 0.373819 0.417567
vt 0.413713 0.446552
vt 0.255879 0.621844
vt 0.328770 0.397510
vt 0.373819 0.417567
vt 0.255879 0.621844
vt 0.280535 0.387257
vt 0.328770 0.397510
vt 0.255879 0.621844
vt 0.231223 0.387257
vt 0.280535 0.387257
vt 0.255879 0.621844
vt 0.182989 0.397510
vt 0.231223 0.387257
vt 0.255879 0.621844
vt 0.137940 0.417567
vt 0.182989 0.397510
vt 0.255879 0.621844
vt 0.098045 0.446552
vt 0.137940 0.417567
vt 0.255879 0.621844
vt 0.065049 0.483198
vt 0.098045 0.446552
vt 0.255879 0.621844
vt 0.040393 0.525903
vt 0.065049 0.483198
vt 0.255879 0.621844
vt 0.025155 0.572802
vt 0.040393 0.525903
vt 0.255879 0.621844
vt 0.020000 0.621844
vt 0.025155 0.572802
vt 0.255879 0.621844
vt 0.025154 0.670886
vt 0.020000 0.621844
vt 0.255879 0.621844
vt 0.040393 0.717785
vt 0.025154 0.670886
vt 0.255879 0.621844
vt 0.065049 0.760490
vt 0.040393 0.717785
vt 0.255879 0.621844
vt 0.098045 0.797136
vt 0.065049 0.760490
vt 0.255879 0.621844
vt 0.137940 0.826121
vt 0.098045 0.797136
vt 0.255879 0.621844
vt 0.182988 0.846178
vt 0.137940 0.826121
vt 0.255879 0.621844
vt 0.231223 0.856431
vt 0.182988 0.846178
vt 0.255879 0.621844
vt 0.280535 0.856431
vt 0.231223 0.856431
vt 0.255879 0.621844
vt 0.328770 0.846178
vt 0.280535 0.856431
vt 0.255879 0.621844
vt 0.373819 0.826121
vt 0.328770 0.846178
vt 0.255879 0.621844
vt 0.413713 0.797136
vt 0.373819 0.826121
vt 0.255879 0.621844
vt 0.446709 0.760490
vt 0.413713 0.797136
vt 0.255879 0.621844
vt 0.471365 0.717785
vt 0.446709 0.760490
vt 0.255879 0.621844
vt 0.486603 0.670886
vt 0.471365 0.717785
vt 0.255879 0.621844
vt 0.491758 0.621844
vt 0.486603 0.670886
vt 0.905788 0.237182
vt 0.844070 0.214090
vt 0.853951 0.237180
vt 0.905788 0.237182
vt 0.879717 0.279029
vt 0.844070 0.214090
vt 0.879717 0.279029
vt 0.816910 0.191618
vt 0.844070 0.214090
vt 0.879717 0.279029
vt 0.838679 0.312218
vt 0.816910 0.191618
vt 0.838679 0.312218
vt 0.774951 0.170382
vt 0.816910 0.191618
vt 0.838679 0.312218
vt 0.785155 0.337367
vt 0.774951 0.170382
vt 0.785155 0.337367
vt 0.720673 0.151003
vt 0.774951 0.170382
vt 0.785155 0.337367
vt 0.721625 0.355095
vt 0.720673 0.151003
vt 0.721625 0.355095
vt 0.656556 0.134097
vt 0.720673 0.151003
vt 0.721625 0.355095
vt 0.650570 0.366020
vt 0.656556 0.134097
vt 0.650570 0.366020
vt 0.585082 0.120284
vt 0.656556 0.134097
vt 0.650570 0.366020
vt 0.574471 0.370760
vt 0.585082 0.120284
vt 0.574471 0.370760
vt 0.508730 0.110182
vt 0.585082 0.120284
vt 0.574471 0.370760
vt 0.495808 0.369935
vt 0.508730 0.110182
vt 0.495808 0.369935
vt 0.429982 0.104410
vt 0.508730 0.110182
vt 0.495808 0.369935
vt 0.417061 0.364163
vt 0.429982 0.104410
vt 0.417061 0.364163
vt 0.351317 0.103586
vt 0.429982 0.104410
vt 0.417061 0.364163
vt 0.340710 0.354062
vt 0.351317 0.103586
vt 0.340710 0.354062
vt 0.275217 0.108328
vt 0.351317 0.103586
vt 0.340710 0.354062
vt 0.269237 0.340250
vt 0.275217 0.108328
vt 0.269237 0.340250
vt 0.204162 0.119255
vt 0.275217 0.108328
vt 0.269237 0.340250
vt 0.205122 0.323346
vt 0.204162 0.119255
vt 0.205122 0.323346
vt 0.140632 0.136986
vt 0.204162 0.119255
vt 0.205122 0.323346
vt 0.150844 0.303969
vt 0.140632 0.136986
vt 0.150844 0.303969
vt 0.087108 0.162138
vt 0.140632 0.136986
vt 0.150844 0.303969
vt 0.108886 0.282736
vt 0.087108 0.162138
vt 0.108886 0.282736
vt 0.046070 0.195331
vt 0.087108 0.162138
vt 0.108886 0.282736
vt 0.081726 0.260267
vt 0.046070 0.195331
vt 0.081726 0.260267
vt 0.020000 0.237182
vt 0.046070 0.195331
vt 0.081726 0.260267
vt 0.071847 0.237179
vt 0.020000 0.237182
vt 0.071847 0.237179
vt 0.046072 0.279032
vt 0.020000 0.237182
vt 0.071847 0.237179
vt 0.081727 0.214091
vt 0.046072 0.279032
vt 0.081727 0.214091
vt 0.087111 0.312223
vt 0.046072 0.279032
vt 0.081727 0.214091
vt 0.108887 0.191621
vt 0.087111 0.312223
vt 0.108887 0.191621
vt 0.140636 0.337375
vt 0.087111 0.312223
vt 0.108887 0.191621
vt 0.150847 0.170389
vt 0.140636 0.337375
vt 0.150847 0.170389
vt 0.204166 0.355104
vt 0.140636 0.337375
vt 0.150847 0.170389
vt 0.205125 0.151011
vt 0.204166 0.355104
vt 0.205125 0.151011
vt 0.275221 0.366031
vt 0.204166 0.355104
vt 0.205125 0.151011
vt 0.269240 0.134107
vt 0.275221 0.366031
vt 0.269240 0.134107
vt 0.351321 0.370773
vt 0.275221 0.366031
vt 0.269240 0.134107
vt 0.340714 0.120296
vt 0.351321 0.370773
vt 0.340714 0.120296
vt 0.429985 0.369948
vt 0.351321 0.370773
vt 0.340714 0.120296
vt 0.417064 0.110195
vt 0.429985 0.369948
vt 0.417064 0.110195
vt 0.508733 0.364176
vt 0.429985 0.369948
vt 0.417064 0.110195
vt 0.495811 0.104423
vt 0.508733 0.364176
vt 0.495811 0.104423
vt 0.585084 0.354074
vt 0.508733 0.364176
vt 0.495811 0.104423
vt 0.574475 0.103598
vt 0.585084 0.354074
vt 0.574475 0.103598
vt 0.656558 0.340261
vt 0.585084 0.354074
vt 0.574475 0.103598
vt 0.650574 0.108340
vt 0.656558 0.340261
vt 0.650574 0.108340
vt 0.720674 0.323356
vt 0.656558 0.340261
vt 0.650574 0.108340
vt 0.721628 0.119265
vt 0.720674 0.323356
vt 0.721628 0.119265
vt 0.774951 0.303977
vt 0.720674 0.323356
vt 0.721628 0.119265
vt 0.785157 0.136994
vt 0.774951 0.303977
vt 0.785157 0.136994
vt 0.816910 0.282742
vt 0.774951 0.303977
vt 0.785157 0.136994
vt 0.838681 0.162144
vt 0.816910 0.282742
vt 0.838681 0.162144
vt 0.844070 0.260271
vt 0.816910 0.282742
vt 0.838681 0.162144
vt 0.879717 0.195334
vt 0.844070 0.260271
vt 0.879717 0.195334
vt 0.853951 0.237180
vt 0.844070 0.260271
vt 0.879717 0.195334
vt 0.905788 0.237182
vt 0.853951 0.237180
vt 0.744121 0.621844
vt 0.980000 0.621844
vt 0.974846 0.670886
vt 0.744121 0.621844
vt 0.974846 0.670886
vt 0.959607 0.717784
vt 0.744121 0.621844
vt 0.959607 0.717784
vt 0.934951 0.760490
vt 0.744121 0.621844
vt 0.934951 0.760490
vt 0.901955 0.797136
vt 0.744121 0.621844
vt 0.901955 0.797136
vt 0.862061 0.826121
vt 0.744121 0.621844
vt 0.862061 0.826121
vt 0.817012 0.846178
vt 0.744121 0.621844
vt 0.817012 0.846178
vt 0.768778 0.856431
vt 0.744121 0.621844
vt 0.768778 0.856431
vt 0.719465 0.856431
vt 0.744121 0.621844
vt 0.719465 0.856431
vt 0.671231 0.846178
vt 0.744121 0.621844
vt 0.671231 0.846178
vt 0.626182 0.826121
vt 0.744121 0.621844
vt 0.626182 0.826121
vt 0.586287 0.797136
vt 0.744121 0.621844
vt 0.586287 0.797136
vt 0.553291 0.760490
vt 0.744121 0.621844
vt 0.553291 0.760490
vt 0.528635 0.717784
vt 0.744121 0.621844
vt 0.528635 0.717784
vt 0.513397 0.670886
vt 0.744121 0.621844
vt 0.513397 0.670886
vt 0.508242 0.621844
vt 0.744121 0.621844
vt 0.508242 0.621844
vt 0.513397 0.572802
vt 0.744121 0.621844
vt 0.513397 0.572802
vt 0.528635 0.525903
vt 0.744121 0.621844
vt 0.528635 0.525903
vt 0.553291 0.483197
vt 0.744121 0.621844
vt 0.553291 0.483197
vt 0.586288 0.446551
vt 0.744121 0.621844
vt 0.586288 0.446551
vt 0.626182 0.417567
vt 0.744121 0.621844
vt 0.626182 0.417567
vt 0.671231 0.397510
vt 0.744121 0.621844
vt 0.671231 0.397510
vt 0.719465 0.387257
vt 0.744121 0.621844
vt 0.719465 0.387257
vt 0.768777 0.387257
vt 0.744121 0.621844
vt 0.768777 0.387257
vt 0.817012 0.397510
vt 0.744121 0.621844
vt 0.817012 0.397510
vt 0.862061 0.417567
vt 0.744121 0.621844
vt 0.862061 0.417567
vt 0.901955 0.446552
vt 0.744121 0.621844
vt 0.901955 0.446552
vt 0.934951 0.483197
vt 0.744121 0.621844
vt 0.934951 0.483197
vt 0.959607 0.525903
vt 0.744121 0.621844
vt 0.959607 0.525903
vt 0.974845 0.572801
vt 0.744121 0.621844
vt 0.974845 0.572801
vt 0.980000 0.621844
vn 0.0000 0.4226 -0.9063
vn 1.0000 -0.0000 -0.0000
vn 0.9782 0.1884 0.0879
vn 1.0000 0.0000 0.0001
vn 0.9136 0.3686 0.1719
vn 0.9135 0.3686 0.1719
vn 0.8090 0.5327 0.2484
vn 0.6691 0.6735 0.3141
vn 0.5000 0.7849 0.3660
vn 0.3090 0.8619 0.4019
vn 0.3090 0.8620 0.4019
vn 0.1046 0.9013 0.4203
vn 0.3090 0.8619 0.4020
vn 0.1045 0.9013 0.4203
vn -0.1045 0.9013 0.4203
vn -0.1046 0.9013 0.4203
vn -0.3090 0.8620 0.4019
vn -0.3090 0.8619 0.4019
vn -0.5000 0.7849 0.3660
vn -0.6691 0.6735 0.3141
vn -0.8090 0.5327 0.2484
vn -0.9135 0.3686 0.1719
vn -0.9136 0.3686 0.1719
vn -0.9782 0.1884 0.0879
vn -1.0000 -0.0000 -0.0000
vn -0.9782 -0.1884 -0.0879
vn -0.9136 -0.3686 -0.1719
vn -0.9135 -0.3686 -0.1719
vn -0.8090 -0.5327 -0.2484
vn -0.6691 -0.6735 -0.3141
vn -0.5000 -0.7849 -0.3660
vn -0.3090 -0.8619 -0.4019
vn -0.3090 -0.8620 -0.4019
vn -0.1046 -0.9013 -0.4203
vn -0.1045 -0.9013 -0.4203
vn 0.1045 -0.9013 -0.4203
vn 0.1046 -0.9013 -0.4203
vn 0.3090 -0.8619 -0.4020
vn 0.3090 -0.8620 -0.4019
vn 0.3090 -0.8619 -0.4019
vn 0.5000 -0.7849 -0.3660
vn 0.6691 -0.6735 -0.3141
vn 0.8090 -0.5327 -0.2484
vn 0.9135 -0.3686 -0.1719
vn 0.9135 -0.3687 -0.1719
vn 0.9136 -0.3686 -0.1719
vn 0.9781 -0.1885 -0.0879
vn 0.9782 -0.1884 -0.0879
vn 0.0000 -0.4226 0.9063
usemtl ChoptickSG
s 1
f 1/1/1 2/2/1 3/3/1
f 4/4/1 5/5/1 6/6/1
f 7/7/1 8/8/1 9/9/1
f 10/10/1 11/11/1 12/12/1
f 13/13/1 14/14/1 15/15/1
f 16/16/1 17/17/1 18/18/1
f 19/19/1 20/20/1 21/21/1
f 22/22/1 23/23/1 24/24/1
f 25/25/1 26/26/1 27/27/1
f 28/28/1 29/29/1 30/30/1
f 31/31/1 32/32/1 33/33/1
f 34/34/1 35/35/1 36/36/1
f 37/37/1 38/38/1 39/39/1
f 40/40/1 41/41/1 42/42/1
f 43/43/1 44/44/1 45/45/1
f 46/46/1 47/47/1 48/48/1
f 49/49/1 50/50/1 51/51/1
f 52/52/1 53/53/1 54/54/1
f 55/55/1 56/56/1 57/57/1
f 58/58/1 59/59/1 60/60/1
f 61/61/1 62/62/1 63/63/1
f 64/64/1 65/65/1 66/66/1
f 67/67/1 68/68/1 69/69/1
f 70/70/1 71/71/1 72/72/1
f 73/73/1 74/74/1 75/75/1
f 76/76/1 77/77/1 78/78/1
f 79/79/1 80/80/1 81/81/1
f 82/82/1 83/83/1 84/84/1
f 85/85/1 86/86/1 87/87/1
f 88/88/1 89/89/1 90/90/1
f 91/91/2 92/92/3 93/93/2
f 94/94/4 95/95/3 96/96/3
f 97/97/3 98/98/5 99/99/3
f 100/100/3 101/101/5 102/102/5
f 103/103/6 104/104/7 105/105/6
f 106/106/6 107/107/7 108/108/7
f 109/109/7 110/110/8 111/111/7
f 112/112/7 113/113/8 114/114/8
f 115/115/8 116/116/9 117/117/8
f 118/118/8 119/119/9 120/120/9
f 121/121/9 122/122/10 123/123/9
f 124/124/9 125/125/10 126/126/10
f 127/127/11 128/128/12 129/129/11
f 130/130/13 131/131/12 132/132/12
f 133/133/14 134/134/15 135/135/14
f 136/136/14 137/137/15 138/138/15
f 139/139/16 140/140/17 141/141/16
f 142/142/16 143/143/17 144/144/17
f 145/145/18 146/146/19 147/147/18
f 148/148/18 149/149/19 150/150/19
f 151/151/19 152/152/20 153/153/19
f 154/154/19 155/155/20 156/156/20
f 157/157/20 158/158/21 159/159/20
f 160/160/20 161/161/21 162/162/21
f 163/163/21 164/164/22 165/165/21
f 166/166/21 167/167/22 168/168/22
f 169/169/23 170/170/24 171/171/23
f 172/172/23 173/173/24 174/174/24
f 175/175/24 176/176/25 177/177/24
f 178/178/24 179/179/25 180/180/25
f 181/181/25 182/182/26 183/183/25
f 184/184/25 185/185/26 186/186/26
f 187/187/26 188/188/27 189/189/26
f 190/190/26 191/191/27 192/192/27
f 193/193/28 194/194/29 195/195/28
f 196/196/28 197/197/29 198/198/29
f 199/199/29 200/200/30 201/201/29
f 202/202/29 203/203/30 204/204/30
f 205/205/30 206/206/31 207/207/30
f 208/208/30 209/209/31 210/210/31
f 211/211/31 212/212/32 213/213/31
f 214/214/31 215/215/32 216/216/32
f 217/217/33 218/218/34 219/219/33
f 220/220/33 221/221/34 222/222/34
f 223/223/35 224/224/36 225/225/35
f 226/226/35 227/227/36 228/228/36
f 229/229/37 230/230/38 231/231/37
f 232/232/36 233/233/39 234/234/39
f 235/235/40 236/236/41 237/237/40
f 238/238/39 239/239/41 240/240/41
f 241/241/41 242/242/42 243/243/41
f 244/244/41 245/245/42 246/246/42
f 247/247/42 248/248/43 249/249/42
f 250/250/42 251/251/43 252/252/43
f 253/253/43 254/254/44 255/255/43
f 256/256/43 257/257/45 258/258/44
f 259/259/46 260/260/47 261/261/46
f 262/262/46 263/263/47 264/264/47
f 265/265/48 266/266/2 267/267/48
f 268/268/48 269/269/2 270/270/2
f 271/271/49 272/272/49 273/273/49
f 274/274/49 275/275/49 276/276/49
f 277/277/49 278/278/49 279/279/49
f 280/280/49 281/281/49 282/282/49
f 283/283/49 284/284/49 285/285/49
f 286/286/49 287/287/49 288/288/49
f 289/289/49 290/290/49 291/291/49
f 292/292/49 293/293/49 294/294/49
f 295/295/49 296/296/49 297/297/49
f 298/298/49 299/299/49 300/300/49
f 301/301/49 302/302/49 303/303/49
f 304/304/49 305/305/49 306/306/49
f 307/307/49 308/308/49 309/309/49
f 310/310/49 311/311/49 312/312/49
f 313/313/49 314/314/49 315/315/49
f 316/316/49 317/317/49 318/318/49
f 319/319/49 320/320/49 321/321/49
f 322/322/49 323/323/49 324/324/49
f 325/325/49 326/326/49 327/327/49
f 328/328/49 329/329/49 330/330/49
f 331/331/49 332/332/49 333/333/49
f 334/334/49 335/335/49 336/336/49
f 337/337/49 338/338/49 339/339/49
f 340/340/49 341/341/49 342/342/49
f 343/343/49 344/344/49 345/345/49
f 346/346/49 347/347/49 348/348/49
f 349/349/49 350/350/49 351/351/49
f 352/352/49 353/353/49 354/354/49
f 355/355/49 356/356/49 357/357/49
f 358/358/49 359/359/49 360/360/49
